<svg enable-background="new 0 0 212.5 51.7" version="1.1" viewBox="0 0 212.5 51.7" xml:space="preserve" xmlns="http://www.w3.org/2000/svg"><style type="text/css">
	.st0{fill:#231F20;}
	.st1{fill:#0D7BB5;}
	.st2{fill:#FFFFFF;}
</style><rect class="st1" x="5.9" y="6.7" width="83.1" height="39" fill="#0d7bb5"/><g fill="#fff"><path class="st2" d="m19.2 29.9c-0.1-0.6 0-1.5 0-2l0.9-10.6h3.5l-1 10.7c-0.2 2.3 0.7 4 3 4 2.4 0 3.6-1.7 3.8-3.7l1-10.9h3.5l-1 10.8c-0.4 4.2-3.1 7.3-7.6 7.3-3.5-0.1-5.7-2.3-6.1-5.6"/><path class="st2" d="m34.7 26.3c0.5-5.1 3.9-9.3 9.8-9.3 1.6 0 3.1 0.4 4.6 1.3l-0.4 4.2c-1.4-1.8-3-2.1-4.5-2.1-3.7 0-5.7 2.6-6 5.8s1.4 5.7 4.9 5.7c1.6 0 3.2-0.5 5-2.2l-0.4 4.3c-1.7 0.9-3.3 1.3-4.8 1.3-5.9 0.2-8.6-4.2-8.2-9"/><path class="st2" d="m51.9 17.3h3.5l-1.3 14.4h5 1.9c0 0.2-0.3 3.3-0.3 3.3h-10.4z"/><path class="st2" d="m69.9 23.9c0.1-0.3 0.2-0.6 0.3-0.7h0.1c0 0.2 0.1 0.5 0.1 0.7 0.2 0.8 1.5 5.3 1.5 5.3h-4.4s2.4-5.2 2.4-5.3m0.9-7.4h-0.2l-9.5 18.5h3.7l1.3-2.8h6.7l0.8 2.8h3.7z"/></g><text x="111.49691" y="20.874384" fill="#000000" font-family="sans-serif" font-size="40px" letter-spacing="0px" word-spacing="0px" style="line-height:1.25" xml:space="preserve"><tspan x="111.49691" y="56.265007"/></text>
<text x="91.657028" y="34.319599" fill="#000000" font-family="Helvetica" font-size="24px" font-style="oblique" font-weight="bold" letter-spacing="0px" word-spacing="0px" style="font-feature-settings:normal;font-variant-caps:normal;font-variant-ligatures:normal;font-variant-numeric:normal;line-height:1.25" xml:space="preserve"><tspan x="91.657028" y="34.319599" font-family="Helvetica" font-size="24px" font-style="normal" font-weight="bold" style="font-feature-settings:normal;font-variant-caps:normal;font-variant-ligatures:normal;font-variant-numeric:normal">Dataverse</tspan></text>
</svg>
